<svg width="20" height="21" viewBox="0 0 20 21" fill="none" xmlns="http://www.w3.org/2000/svg">
<g id="Frame" clip-path="url(#clip0_9767_10174)">
<g id="Group">
<g id="Group_2">
<path id="Vector" d="M6.37367 11.9067C6.18614 11.7193 5.93183 11.6139 5.66667 11.6139C5.4015 11.6139 5.14719 11.7193 4.95967 11.9067C4.79594 12.0717 4.69551 12.2891 4.676 12.5207C4.56222 12.5078 4.44784 12.5008 4.33333 12.4997C3.63315 12.4988 2.9505 12.7187 2.38247 13.1281C1.81445 13.5375 1.38997 14.1156 1.16942 14.7801C0.948866 15.4447 0.943463 16.1618 1.15398 16.8296C1.36449 17.4974 1.78021 18.0818 2.342 18.4997H1C0.734784 18.4997 0.48043 18.6051 0.292893 18.7926C0.105357 18.9802 0 19.2345 0 19.4997C0 19.7649 0.105357 20.0193 0.292893 20.2068C0.48043 20.3944 0.734784 20.4997 1 20.4997H19C19.2652 20.4997 19.5196 20.3944 19.7071 20.2068C19.8946 20.0193 20 19.7649 20 19.4997C20 19.2345 19.8946 18.9802 19.7071 18.7926C19.5196 18.6051 19.2652 18.4997 19 18.4997H17.7333L18.6173 13.7867C18.8473 13.7187 19.045 13.57 19.1743 13.368C19.3036 13.1661 19.3558 12.9243 19.3213 12.6869C19.2868 12.4496 19.1679 12.2327 18.9865 12.0758C18.805 11.919 18.5732 11.8328 18.3333 11.8331C18.333 11.5375 18.2347 11.2504 18.0537 11.0167C17.8728 10.7831 17.6194 10.616 17.3333 10.5417V10.4997C17.333 10.1465 17.2203 9.80244 17.0117 9.51733C16.8031 9.23223 16.5093 9.02078 16.1727 8.91352C15.8361 8.80625 15.4742 8.80871 15.139 8.92055C14.8039 9.03239 14.513 9.24781 14.3083 9.53573C14.1372 9.49527 13.9598 9.48899 13.7863 9.51725C13.6127 9.54551 13.4465 9.60776 13.2971 9.70042C13.1476 9.79308 13.018 9.91433 12.9155 10.0572C12.8131 10.2001 12.7398 10.3618 12.7 10.5331C12.4063 10.6013 12.1444 10.7669 11.9567 11.003C11.7691 11.239 11.6669 11.5316 11.6667 11.8331C11.4267 11.8325 11.1946 11.9185 11.0129 12.0752C10.8313 12.2319 10.7122 12.4488 10.6775 12.6863C10.6428 12.9237 10.6949 13.1656 10.8242 13.3678C10.9534 13.5699 11.1513 13.7186 11.3813 13.7867L12.2667 18.4997H10C9.99947 17.9695 9.78859 17.4611 9.41363 17.0861C9.03867 16.7111 8.53027 16.5003 8 16.4997H7.59667C7.66881 16.1683 7.68536 15.8272 7.64567 15.4904C7.83446 15.4734 8.01449 15.4029 8.16461 15.2872C8.31472 15.1714 8.42869 15.0153 8.49313 14.837C8.55757 14.6587 8.5698 14.4658 8.52839 14.2808C8.48697 14.0958 8.39363 13.9265 8.25933 13.7927L8.02367 13.5571L19.3737 2.20706C19.4678 2.1145 19.5426 2.00421 19.5939 1.88257C19.6452 1.76093 19.6719 1.63034 19.6724 1.49833C19.673 1.36632 19.6474 1.23551 19.5971 1.11345C19.5469 0.991381 19.4729 0.880471 19.3796 0.787117C19.2863 0.693763 19.1754 0.619812 19.0533 0.569529C18.9313 0.519246 18.8005 0.493627 18.6685 0.494148C18.5365 0.49467 18.4059 0.521323 18.2842 0.57257C18.1626 0.623816 18.0523 0.698642 17.9597 0.792731L6.60967 12.1427L6.37367 11.9067ZM13 11.1664C13.0884 11.1664 13.1732 11.1313 13.2357 11.0688C13.2982 11.0063 13.3333 10.9215 13.3333 10.8331C13.3333 10.7188 13.3626 10.6064 13.4185 10.5067C13.4744 10.407 13.5549 10.3234 13.6525 10.2638C13.75 10.2042 13.8612 10.1707 13.9754 10.1665C14.0896 10.1623 14.203 10.1875 14.3047 10.2397C14.3448 10.2603 14.3886 10.2725 14.4336 10.2756C14.4785 10.2788 14.5236 10.2727 14.5662 10.2579C14.6088 10.2431 14.6479 10.2199 14.6812 10.1895C14.7145 10.1592 14.7413 10.1224 14.76 10.0814C14.8559 9.87523 15.0192 9.70792 15.223 9.60703C15.4268 9.50615 15.6589 9.47774 15.881 9.52647C16.1031 9.5752 16.3019 9.69817 16.4448 9.8751C16.5876 10.052 16.6659 10.2723 16.6667 10.4997C16.6661 10.586 16.6549 10.6719 16.6333 10.7554C16.6201 10.8084 16.62 10.8638 16.6332 10.9168C16.6464 10.9698 16.6724 11.0188 16.709 11.0594C16.7455 11.1 16.7915 11.131 16.8428 11.1496C16.8941 11.1683 16.9493 11.174 17.0033 11.1664C17.1796 11.1673 17.3483 11.2379 17.4726 11.3628C17.5969 11.4878 17.6667 11.6568 17.6667 11.8331H12.3333C12.3333 11.6563 12.4036 11.4867 12.5286 11.3617C12.6536 11.2366 12.8232 11.1664 13 11.1664ZM11.6667 12.4997H18.3333C18.4217 12.4997 18.5065 12.5349 18.569 12.5974C18.6315 12.6599 18.6667 12.7447 18.6667 12.8331C18.6667 12.9215 18.6315 13.0063 18.569 13.0688C18.5065 13.1313 18.4217 13.1664 18.3333 13.1664H11.6667C11.5783 13.1664 11.4935 13.1313 11.431 13.0688C11.3685 13.0063 11.3333 12.9215 11.3333 12.8331C11.3333 12.7447 11.3685 12.6599 11.431 12.5974C11.4935 12.5349 11.5783 12.4997 11.6667 12.4997ZM12.0667 13.8331H17.9333L17.0567 18.4997H12.9433L12.0667 13.8331ZM12.6667 19.1664H19C19.0884 19.1664 19.1732 19.2015 19.2357 19.264C19.2982 19.3265 19.3333 19.4113 19.3333 19.4997C19.3333 19.5881 19.2982 19.6729 19.2357 19.7354C19.1732 19.7979 19.0884 19.8331 19 19.8331H1C0.911595 19.8331 0.82681 19.7979 0.764298 19.7354C0.701786 19.6729 0.666667 19.5881 0.666667 19.4997C0.666667 19.4113 0.701786 19.3265 0.764298 19.264C0.82681 19.2015 0.911595 19.1664 1 19.1664H12.6667ZM6.33333 16.4997C6.24493 16.4997 6.16014 16.5349 6.09763 16.5974C6.03512 16.6599 6 16.7447 6 16.8331C6 16.9215 6.03512 17.0063 6.09763 17.0688C6.16014 17.1313 6.24493 17.1664 6.33333 17.1664H8C8.35362 17.1664 8.69276 17.3069 8.94281 17.5569C9.19286 17.807 9.33333 18.1461 9.33333 18.4997H4.33333C3.62609 18.4997 2.94781 18.2188 2.44772 17.7187C1.94762 17.2186 1.66667 16.5403 1.66667 15.8331C1.66667 15.1258 1.94762 14.4475 2.44772 13.9474C2.94781 13.4474 3.62609 13.1664 4.33333 13.1664C4.51839 13.1682 4.70279 13.1889 4.88367 13.2281C4.907 13.2607 4.93233 13.2914 4.95967 13.3211L6.845 15.2067C6.87467 15.2341 6.90567 15.2594 6.93833 15.2831C6.97758 15.4638 6.99824 15.6481 7 15.8331C7 16.0581 6.97167 16.2821 6.915 16.4997H6.33333ZM7.788 14.7354C7.75704 14.7664 7.72028 14.791 7.67981 14.8078C7.63935 14.8245 7.59597 14.8332 7.55217 14.8332C7.50836 14.8332 7.46499 14.8245 7.42452 14.8078C7.38405 14.791 7.34729 14.7664 7.31633 14.7354L5.431 12.8497C5.37028 12.7869 5.33668 12.7027 5.33744 12.6153C5.3382 12.5279 5.37326 12.4443 5.43506 12.3825C5.49686 12.3207 5.58047 12.2856 5.66787 12.2848C5.75527 12.2841 5.83947 12.3177 5.90233 12.3784L6.37333 12.8494L6.65633 13.1324L7.78767 14.2637C7.85016 14.3262 7.88526 14.411 7.88526 14.4994C7.88526 14.5878 7.85016 14.6726 7.78767 14.7351L7.788 14.7354ZM18.431 1.26406C18.4618 1.23223 18.4985 1.20683 18.5392 1.18936C18.5799 1.17189 18.6236 1.1627 18.6679 1.16231C18.7121 1.16193 18.756 1.17036 18.797 1.18712C18.8379 1.20388 18.8752 1.22864 18.9065 1.25993C18.9378 1.29123 18.9625 1.32845 18.9793 1.36941C18.996 1.41038 19.0045 1.45427 19.0041 1.49853C19.0037 1.54279 18.9945 1.58653 18.977 1.6272C18.9596 1.66787 18.9342 1.70465 18.9023 1.7354L7.55233 13.0854L7.42133 12.9547L7.081 12.6141L18.431 1.26406Z" fill="#454567"/>
<path id="Vector_2" d="M14 14.5H13.3333C13.2449 14.5 13.1601 14.5351 13.0976 14.5976C13.0351 14.6601 13 14.7449 13 14.8333C13 14.9217 13.0351 15.0065 13.0976 15.069C13.1601 15.1315 13.2449 15.1667 13.3333 15.1667H14C14.0884 15.1667 14.1732 15.1315 14.2357 15.069C14.2982 15.0065 14.3333 14.9217 14.3333 14.8333C14.3333 14.7449 14.2982 14.6601 14.2357 14.5976C14.1732 14.5351 14.0884 14.5 14 14.5ZM16.3333 14.5H15.3333C15.2449 14.5 15.1601 14.5351 15.0976 14.5976C15.0351 14.6601 15 14.7449 15 14.8333C15 14.9217 15.0351 15.0065 15.0976 15.069C15.1601 15.1315 15.2449 15.1667 15.3333 15.1667H16.3333C16.4217 15.1667 16.5065 15.1315 16.569 15.069C16.6315 15.0065 16.6667 14.9217 16.6667 14.8333C16.6667 14.7449 16.6315 14.6601 16.569 14.5976C16.5065 14.5351 16.4217 14.5 16.3333 14.5ZM18.6667 9.83333C18.798 9.83333 18.928 9.80747 19.0494 9.75721C19.1707 9.70696 19.2809 9.6333 19.3738 9.54044C19.4666 9.44758 19.5403 9.33734 19.5905 9.21602C19.6408 9.09469 19.6667 8.96466 19.6667 8.83333C19.6667 8.70201 19.6408 8.57198 19.5905 8.45065C19.5403 8.32932 19.4666 8.21909 19.3738 8.12623C19.2809 8.03337 19.1707 7.95971 19.0494 7.90945C18.928 7.8592 18.798 7.83333 18.6667 7.83333C18.4015 7.83333 18.1471 7.93869 17.9596 8.12623C17.772 8.31376 17.6667 8.56812 17.6667 8.83333C17.6667 9.09855 17.772 9.3529 17.9596 9.54044C18.1471 9.72798 18.4015 9.83333 18.6667 9.83333ZM18.6667 8.5C18.7551 8.5 18.8399 8.53512 18.9024 8.59763C18.9649 8.66014 19 8.74493 19 8.83333C19 8.92174 18.9649 9.00652 18.9024 9.06904C18.8399 9.13155 18.7551 9.16667 18.6667 9.16667C18.5783 9.16667 18.4935 9.13155 18.431 9.06904C18.3685 9.00652 18.3333 8.92174 18.3333 8.83333C18.3333 8.74493 18.3685 8.66014 18.431 8.59763C18.4935 8.53512 18.5783 8.5 18.6667 8.5ZM17 5.83333C16.7348 5.83333 16.4804 5.93869 16.2929 6.12623C16.1054 6.31376 16 6.56812 16 6.83333C16 7.09855 16.1054 7.3529 16.2929 7.54044C16.4804 7.72798 16.7348 7.83333 17 7.83333C17.2652 7.83333 17.5196 7.72798 17.7071 7.54044C17.8946 7.3529 18 7.09855 18 6.83333C18 6.56812 17.8946 6.31376 17.7071 6.12623C17.5196 5.93869 17.2652 5.83333 17 5.83333ZM17 7.16667C16.9116 7.16667 16.8268 7.13155 16.7643 7.06904C16.7018 7.00652 16.6667 6.92174 16.6667 6.83333C16.6667 6.74493 16.7018 6.66014 16.7643 6.59763C16.8268 6.53512 16.9116 6.5 17 6.5C17.0884 6.5 17.1732 6.53512 17.2357 6.59763C17.2982 6.66014 17.3333 6.74493 17.3333 6.83333C17.3333 6.92174 17.2982 7.00652 17.2357 7.06904C17.1732 7.13155 17.0884 7.16667 17 7.16667ZM8.997 0.5C8.91024 0.499964 8.82689 0.533752 8.76465 0.594189C8.70241 0.654626 8.66618 0.736947 8.66367 0.823667V0.833333C8.66367 0.956 8.63333 3.83333 5.99367 3.83333C5.90526 3.83333 5.82048 3.86845 5.75796 3.93096C5.69545 3.99348 5.66033 4.07826 5.66033 4.16667C5.66033 4.25507 5.69545 4.33986 5.75796 4.40237C5.82048 4.46488 5.90526 4.5 5.99367 4.5C8.623 4.5 8.66333 7.378 8.66367 7.5C8.66247 7.58841 8.69645 7.67366 8.75812 7.73702C8.81978 7.80038 8.90409 7.83664 8.9925 7.83783C9.08091 7.83903 9.16616 7.80505 9.22952 7.74338C9.29288 7.68172 9.32914 7.59741 9.33033 7.509V7.5C9.33033 7.37733 9.36067 4.5 12 4.5C12.0884 4.5 12.1732 4.46488 12.2357 4.40237C12.2982 4.33986 12.3333 4.25507 12.3333 4.16667C12.3333 4.07826 12.2982 3.99348 12.2357 3.93096C12.1732 3.86845 12.0884 3.83333 12 3.83333C9.37667 3.83333 9.331 0.966667 9.33033 0.833333C9.33033 0.744928 9.29521 0.660143 9.2327 0.597631C9.17019 0.535119 9.08541 0.5 8.997 0.5ZM10.4807 4.16667C9.79808 4.52674 9.27048 5.12368 8.997 5.84533C8.72352 5.12368 8.19592 4.52674 7.51333 4.16667C8.19592 3.80659 8.72352 3.20965 8.997 2.488C9.27048 3.20965 9.79808 3.80659 10.4807 4.16667ZM2 10.5017V10.5037C2.00049 10.5921 2.03607 10.6767 2.09893 10.7388C2.16178 10.801 2.24676 10.8357 2.33517 10.8352C2.42357 10.8347 2.50816 10.7991 2.57033 10.7362C2.6325 10.6734 2.66715 10.5884 2.66667 10.5C2.66667 10.4183 2.69467 8.5 4.33333 8.5C4.42174 8.5 4.50652 8.46488 4.56904 8.40237C4.63155 8.33986 4.66667 8.25507 4.66667 8.16667C4.66667 8.07826 4.63155 7.99348 4.56904 7.93096C4.50652 7.86845 4.42174 7.83333 4.33333 7.83333C2.69467 7.83333 2.66667 5.91433 2.66667 5.83333V5.83133C2.6664 5.74293 2.63103 5.65825 2.56833 5.59592C2.50563 5.5336 2.42074 5.49873 2.33233 5.499C2.24393 5.49927 2.15925 5.53464 2.09692 5.59734C2.0346 5.66004 1.99973 5.74493 2 5.83333C2 5.915 1.972 7.83333 0.333333 7.83333C0.244928 7.83333 0.160143 7.86845 0.0976311 7.93096C0.035119 7.99348 0 8.07826 0 8.16667C0 8.25507 0.035119 8.33986 0.0976311 8.40237C0.160143 8.46488 0.244928 8.5 0.333333 8.5C1.972 8.5 2 10.419 2 10.5V10.5017ZM1.552 8.16667C1.88959 7.94161 2.15967 7.62902 2.33333 7.26233C2.507 7.62902 2.77707 7.94161 3.11467 8.16667C2.77714 8.3918 2.50709 8.70437 2.33333 9.071C2.15958 8.70437 1.88953 8.3918 1.552 8.16667ZM3.59767 3.23567L4.09767 3.73567C4.16053 3.79639 4.24473 3.82998 4.33213 3.82922C4.41953 3.82847 4.50314 3.79341 4.56494 3.73161C4.62674 3.6698 4.6618 3.5862 4.66256 3.4988C4.66332 3.4114 4.62972 3.3272 4.569 3.26433L4.069 2.76433C4.03825 2.7325 4.00147 2.7071 3.9608 2.68963C3.92013 2.67216 3.87639 2.66297 3.83213 2.66258C3.78787 2.6622 3.74398 2.67063 3.70302 2.68739C3.66205 2.70415 3.62483 2.7289 3.59354 2.7602C3.56224 2.7915 3.53749 2.82872 3.52073 2.86968C3.50397 2.91065 3.49553 2.95454 3.49592 2.9988C3.4963 3.04306 3.5055 3.0868 3.52297 3.12747C3.54044 3.16814 3.56583 3.20492 3.59767 3.23567ZM2.59767 2.23567C2.66053 2.29639 2.74473 2.32998 2.83213 2.32922C2.91953 2.32847 3.00314 2.29341 3.06494 2.23161C3.12674 2.1698 3.1618 2.0862 3.16256 1.9988C3.16332 1.9114 3.12972 1.8272 3.069 1.76433L2.569 1.26433C2.50613 1.20361 2.42193 1.17002 2.33453 1.17078C2.24713 1.17153 2.16353 1.20659 2.10173 1.26839C2.03992 1.3302 2.00487 1.4138 2.00411 1.5012C2.00335 1.5886 2.03695 1.6728 2.09767 1.73567L2.59767 2.23567ZM2.09767 3.73567C2.16018 3.79816 2.24495 3.83326 2.33333 3.83326C2.42172 3.83326 2.50649 3.79816 2.569 3.73567L3.069 3.23567C3.12972 3.1728 3.16332 3.0886 3.16256 3.0012C3.1618 2.9138 3.12674 2.8302 3.06494 2.76839C3.00314 2.70659 2.91953 2.67153 2.83213 2.67078C2.74473 2.67002 2.66053 2.70361 2.59767 2.76433L2.09767 3.26433C2.03518 3.32684 2.00007 3.41161 2.00007 3.5C2.00007 3.58839 2.03518 3.67316 2.09767 3.73567ZM3.83333 2.33333C3.92173 2.33331 4.0065 2.29818 4.069 2.23567L4.569 1.73567C4.60084 1.70492 4.62623 1.66814 4.6437 1.62747C4.66117 1.5868 4.67037 1.54306 4.67075 1.4988C4.67113 1.45454 4.6627 1.41065 4.64594 1.36968C4.62918 1.32872 4.60443 1.2915 4.57313 1.2602C4.54183 1.2289 4.50462 1.20415 4.46365 1.18739C4.42269 1.17063 4.37879 1.1622 4.33453 1.16258C4.29027 1.16297 4.24653 1.17216 4.20587 1.18963C4.1652 1.2071 4.12842 1.2325 4.09767 1.26433L3.59767 1.76433C3.55106 1.81095 3.51933 1.87034 3.50647 1.93499C3.49362 1.99964 3.50022 2.06665 3.52544 2.12755C3.55066 2.18845 3.59338 2.24051 3.64818 2.27713C3.70298 2.31376 3.76742 2.33332 3.83333 2.33333Z" fill="#454567"/>
</g>
</g>
</g>
<defs>
<clipPath id="clip0_9767_10174">
<rect width="20" height="20" fill="white" transform="translate(0 0.5)"/>
</clipPath>
</defs>
</svg>
