<?xml version="1.0" encoding="UTF-8"?>
<svg id="Layer_1" xmlns="http://www.w3.org/2000/svg" version="1.1" viewBox="0 0 743.8 261.5">
  <!-- Generator: Adobe Illustrator 29.0.1, SVG Export Plug-In . SVG Version: 2.1.0 Build 192)  -->
  <g id="Layer_1-2">
    <g>
      <rect x="420.9" y="118" width="43.6" height="141"/>
      <path d="M572.8,181.7c-6.4-2.9-14.3-5.6-23.8-8.5-5-1.7-9.3-3.1-12.7-4.4-3.5-1.2-6.2-2.7-8.1-4.6-2.1-1.7-2.9-3.9-2.9-6.4s1-4.4,3.3-6.2c2.1-1.9,5.2-2.7,9.1-2.7s7.7,1.5,10.2,4.1c1.9,2.1,3.1,4.6,4.1,7.5h42.9c-1-8.5-3.7-16.2-8.5-22.8-4.8-6.8-11.4-12.2-19.7-16.2-8.5-3.9-18.2-5.8-29.4-5.8s-22.2,1.9-30.5,5.4c-8.5,3.5-14.7,8.5-19.1,14.7-4.1,6.4-6.4,13.5-6.4,21.4s2.3,15.8,6.6,21.4c4.4,5.6,9.7,10,16,13.1,6.2,3.1,14.1,6.2,23.4,9.1,5.2,1.9,9.5,3.5,13.1,5,3.5,1.5,6.4,3.1,8.5,5.2,2.1,2.1,3.1,4.1,3.1,6.8s-1.2,5-3.5,6.8-5.8,2.9-10.6,2.9-8.9-1.5-12-4.1c-2.3-1.9-3.7-4.4-4.8-7.3h-42.9c1,8.5,3.7,16,8.3,22.6,5,7.1,11.6,12.7,20.5,16.8,8.7,4.1,19.1,6,31.1,6s23.4-1.9,32.1-5.6c8.7-3.7,15.3-8.9,19.7-15.6s6.4-14.3,6.4-23.2-2.3-16.6-6.8-22.4c-4.6-5.6-10.2-10-16.4-12.9l-.4-.2h.1Z"/>
      <polygon points="338.2 71.3 294.6 118 294.6 259 407.7 259 407.7 215.9 338.2 215.9 338.2 71.3"/>
      <polygon points="694.5 187.9 740.1 118 691.4 118 653.2 176.7 653.2 71.3 609.7 118 609.7 259 653.2 259 653.2 199.1 695.1 259 743.8 259 694.5 187.9"/>
      <g>
        <polygon points="114.4 0 88.5 42.9 173.7 182.5 102.4 259 162.8 259 229.1 187.9 114.4 0"/>
        <polygon points="86.6 215.9 55.5 182.5 107.8 96.6 81.7 53.9 0 187.9 66.3 259 88.3 259 128.7 215.9 86.6 215.9"/>
      </g>
    </g>
  </g>
</svg>